<?xml version="1.0" encoding="UTF-8"?>
<svg width="200px" height="200px" viewBox="0 0 200 200" version="1.1" xmlns="http://www.w3.org/2000/svg" xmlns:xlink="http://www.w3.org/1999/xlink">
    <!-- Generator: Sketch 42 (36781) - http://www.bohemiancoding.com/sketch -->
    <title>shampoo-icon</title>
    <desc>Created with Sketch.</desc>
    <defs>
        <path d="M0,24 L23,24 L23,4 C23,4 23,0 11.5,0 C0,1.33226763e-15 0,4 0,4 L0,24 Z" id="path-1"></path>
        <path d="M10,51.995457 C10,51.4456813 10.4484582,51.0576992 10.9913525,51.125109 C10.9913525,51.125109 25,53 40,53 C55,53 69.0209808,51.1235996 69.0209808,51.1235996 C69.5616782,51.0553374 70,51.4552629 70,51.995457 L70,75.004543 C70,75.5543187 69.5556076,76.0576992 69.0172784,76.125109 C69.0172784,76.125109 55.1462402,78 40,78 C24.8537598,78 10.9827216,76.125109 10.9827216,76.125109 C10.4399794,76.0560132 10,75.5447371 10,75.004543 L10,51.995457 Z" id="path-3"></path>
        <mask id="mask-4" maskContentUnits="userSpaceOnUse" maskUnits="objectBoundingBox" x="0" y="0" width="60" height="26.8839971" fill="white">
            <use xlink:href="#path-3"></use>
        </mask>
        <path d="M10,88.9931736 C10,88.444659 10.4512787,88.0173569 11.0032996,88.0385884 L34.9967004,88.9614116 C35.5508075,88.9827234 36,89.4464757 36,89.9931736 L36,129.006826 C36,129.555341 35.5487213,129.982643 34.9967004,129.961412 L11.0032996,129.038588 C10.4491925,129.017277 10,128.553524 10,128.006826 L10,88.9931736 Z" id="path-5"></path>
        <mask id="mask-6" maskContentUnits="userSpaceOnUse" maskUnits="objectBoundingBox" x="0" y="0" width="26" height="41.9243394" fill="white">
            <use xlink:href="#path-5"></use>
        </mask>
    </defs>
    <g id="exportables" stroke="none" stroke-width="1" fill="none" fill-rule="evenodd">
        <g id="shampoo-icon">
            <circle id="Oval-3" fill="#49e891" cx="100" cy="100" r="100"></circle>
            <g id="bottle" transform="translate(60.000000, 18.000000)">
                <path d="M20,29 L60,29 C80,29 80,55 80,55 L80,161.009067 C80,161.556344 79.5719194,162.11394 79.0298851,162.242961 C79.0298851,162.242961 70,165 40,165 C10,165 0.959010795,162.240431 0.959010795,162.240431 C0.429363758,162.107645 4.47641924e-13,161.5462 4.47641924e-13,161.009067 L4.47641924e-13,55 C4.47641924e-13,55 4.47641924e-13,30 20,29 Z" id="Path-28" stroke="#FFFFFF" stroke-width="4"></path>
                <g id="cap" transform="translate(28.000000, 0.000000)">
                    <path d="M0,24 L23,24 L23,4 C23,4 23,0 11.5,0 C0,1.33226763e-15 0,4 0,4 L0,24 Z" id="Path-29" stroke="#FFFFFF" stroke-width="3"></path>
                    <g id="Path-30">
                        <mask id="mask-2" fill="white">
                            <use xlink:href="#path-1"></use>
                        </mask>
                        <use id="Mask" stroke="#FFFFFF" stroke-width="3" xlink:href="#path-1"></use>
                        <path d="M-1,0 C-1,0 -1,5 11,5 C23,5 23,0 23,0 L-1,0 Z" stroke="#FFFFFF" stroke-width="2" mask="url(#mask-2)"></path>
                    </g>
                </g>
                <use id="Rectangle-3" stroke="#FFFFFF" mask="url(#mask-4)" stroke-width="6" xlink:href="#path-3"></use>
                <use id="Rectangle-4" stroke="#FFFFFF" mask="url(#mask-6)" stroke-width="6" xlink:href="#path-5"></use>
            </g>
        </g>
    </g>
</svg>
