<?xml version="1.0" encoding="UTF-8"?>
<svg width="200px" height="200px" viewBox="0 0 200 200" version="1.1" xmlns="http://www.w3.org/2000/svg" xmlns:xlink="http://www.w3.org/1999/xlink">
    <!-- Generator: Sketch 42 (36781) - http://www.bohemiancoding.com/sketch -->
    <title>treatment-icon</title>
    <desc>Created with Sketch.</desc>
    <defs>
        <path d="M0,-2.84217094e-14 L96,-2.84217094e-14 C96,-2.84217094e-14 93,13 88,33 C81,80 76,129 76,129 L20,129 C20,129 14,81 8,33 C3,13 0,-2.84217094e-14 0,-2.84217094e-14 Z" id="path-1"></path>
        <path d="M27,20.0059586 C27,19.450383 27.4538156,19.0404397 27.9996105,19.0869941 C27.9996105,19.0869941 37.75,20 48.5,20 C59.25,20 69.0003895,19.0869941 69.0003895,19.0869941 C69.5524591,19.0389486 70,19.4458427 70,20.0059586 L70,117.994041 C70,118.549617 69.5604075,119.078402 69.021093,119.170519 C69.021093,119.170519 59.25,121 48.5,121 C37.75,121 27.9584053,119.167079 27.9584053,119.167079 C27.4290927,119.074804 27,118.554157 27,117.994041 L27,20.0059586 Z" id="path-3"></path>
        <mask id="mask-4" maskContentUnits="userSpaceOnUse" maskUnits="objectBoundingBox" x="0" y="0" width="43" height="101.916857" fill="white">
            <use xlink:href="#path-3"></use>
        </mask>
    </defs>
    <g id="exportables" stroke="none" stroke-width="1" fill="none" fill-rule="evenodd">
        <g id="treatment-icon">
            <circle id="Oval-3" fill="#49e891" cx="100" cy="100" r="100"></circle>
            <g id="tube" transform="translate(52.000000, 21.000000)">
                <path d="M-7.10542736e-15,-2.84217094e-14 L96,-2.84217094e-14 C96,-2.84217094e-14 93,13 88,33 C81,80 81.9844766,128.016296 81.9844766,128.016296 C81.99305,128.559581 81.5674008,129.117604 81.0298566,129.250618 C81.0298566,129.250618 72,132 48,132 C24,132 15.94721,129.26623 15.94721,129.26623 C15.4240803,129.119195 14.9896487,128.546747 14.976182,128.001402 C14.976182,128.001402 14,81 8,33 C3,13 -7.10542736e-15,-2.84217094e-14 -7.10542736e-15,-2.84217094e-14 Z" id="Path-31" stroke="#FFFFFF" stroke-width="4"></path>
                <g id="Path-32">
                    <mask id="mask-2" fill="white">
                        <use xlink:href="#path-1"></use>
                    </mask>
                    <g id="Mask"></g>
                    <polygon stroke="#FFFFFF" stroke-width="3" mask="url(#mask-2)" points="1 8 95 8 95 0 0 0"></polygon>
                </g>
                <path d="M16,136.991803 C16,136.444045 16.4449463,136.049438 16.9958926,136.108949 C16.9958926,136.108949 33.5,138 48.5,138 C63.5,138 80.0174103,136.107529 80.0174103,136.107529 C80.5600796,136.048142 81,136.455306 81,136.991803 L81,155.008197 C81,155.555955 80.5550537,156.074158 80.0174103,156.161293 C80.0174103,156.161293 63.5,159 48.5,159 C33.5,159 16.9825897,156.161293 16.9825897,156.161293 C16.4399204,156.072213 16,155.544694 16,155.008197 L16,136.991803 Z" id="Path-33" stroke="#FFFFFF" stroke-width="4"></path>
                <path d="M36,153.002455 C36,153.553384 36.3814697,154.231934 36.9127282,154.378057 C36.9127282,154.378057 36,155 48.5,155 C61,155 60.1126239,154.372363 60.1126239,154.372363 C60.6027082,154.166713 61,153.553689 61,153.002455 L61,147.99687 C61,146.341744 59.6558914,145 58.0092478,145 L38.9907522,145 C37.3390054,145 36,146.347391 36,147.99687 L36,153.002455 Z" id="Path-34" fill="#FFFFFF"></path>
                <use id="Rectangle-5" stroke="#FFFFFF" mask="url(#mask-4)" stroke-width="6" xlink:href="#path-3"></use>
            </g>
        </g>
    </g>
</svg>
